<svg version="1.1" id="Capa_1" xmlns="http://www.w3.org/2000/svg" xmlns:xlink="http://www.w3.org/1999/xlink" x="0px" y="0px" viewBox="0 0 1200 1200" enable-background="new 0 0 1200 1200" xml:space="preserve">
<g>
	<g>
		<g>
			<path fill="#E65F00" d="M1090.984,439.046c-4.984-12.223-17.606-19.114-30.684-16.78c-13.105,2.348-22.568,13.224-23.002,26.449
				c-1.71,51.79-23.476,95.663-58.231,117.362c-24.278,15.165-48.325,13.818-64.225,10.012
				c-27.756-6.639-53.633-26.017-69.218-51.841c-11.116-18.401-19.241-38.512-27.84-59.802
				c-12.87-31.845-26.174-64.773-50.439-92.296c-25.071-28.429-66.675-43.053-105.998-37.245
				c-26.059,3.845-47.674,16.419-61.346,35.243c-13.672-18.824-35.287-31.397-61.346-35.243
				c-39.327-5.804-80.932,8.818-105.998,37.245c-24.265,27.523-37.569,60.451-50.439,92.296
				c-8.599,21.29-16.724,41.401-27.84,59.804c-15.586,25.822-41.463,45.2-69.218,51.838c-15.896,3.803-39.943,5.152-64.225-10.012
				c-34.755-21.699-56.521-65.572-58.231-117.362c-0.434-13.224-9.897-24.101-23.002-26.449c-13.083-2.335-25.7,4.557-30.688,16.782
				c-33.86,82.985-16.857,234.272,103.136,302.478c41.246,23.447,86.394,34.658,131.725,34.658
				c95.104,0,190.966-49.377,252.941-138.745c0.988-1.424,2.277-1.723,3.185-1.723s2.197,0.299,3.185,1.721
				c91.52,131.971,256.889,176.727,384.666,104.089C1107.846,673.32,1124.849,522.034,1090.984,439.046z M971.744,713.186
				c-128.752,73.183-272.177,6.016-341.772-94.327c-6.836-9.857-18.04-15.743-29.971-15.743c-11.931,0-23.135,5.886-29.971,15.743
				v0.002c-69.595,100.348-213.029,167.497-341.772,94.325c-100.013-56.851-111.864-172.57-96.066-239.473
				c7.416,52.273,33.2,96.119,71.473,120.018c26.803,16.731,57.598,21.591,89.079,14.064c36.062-8.626,69.537-33.559,89.544-66.693
				c12.453-20.63,21.456-42.903,30.157-64.443c12.387-30.653,24.083-59.605,44.666-82.946
				c17.677-20.051,48.538-30.733,76.785-26.555c12.263,1.808,34.348,8.158,44.524,30.365c3.93,8.577,12.201,13.904,21.58,13.904
				c9.379,0,17.65-5.327,21.58-13.904c10.176-22.207,32.261-28.557,44.524-30.365c28.265-4.162,59.109,6.504,76.785,26.555
				c20.583,23.341,32.279,52.293,44.666,82.946c8.701,21.54,17.703,43.813,30.157,64.44c20.007,33.136,53.482,58.07,89.544,66.695
				c31.486,7.531,62.285,2.669,89.079-14.064c38.273-23.899,64.057-67.745,71.473-120.018
				C1083.612,540.619,1071.757,656.335,971.744,713.186z"></path>
            <path fill="#E65F00" d="M911.687,631.434c-14.018,43.687-62.061,55.528-62.061,55.528s20.687-46.818,6.532-80.57
				c-16.331-9.799-57.704-43.551-77.302-115.411c-4.491,37.971-22.865,71.859-59.883,97.99
				c16.331-69.682,16.427-162.228-17.421-200.335c0,0-48.995-29.942-101.551,61.153c-52.556-91.095-101.552-61.153-101.552-61.153
				c-33.848,38.107-33.752,130.654-17.421,200.335c-37.018-26.131-55.392-60.019-59.883-97.99
				c-19.598,71.859-60.971,105.612-77.304,115.411c-14.154,33.752,6.534,80.57,6.534,80.57s-48.043-11.841-62.061-55.528
				c-68.593,19.598-132.83-52.261-132.83-52.261s26.833,134.169,176.465,144.897c26.527,1.902,53.255-1.007,78.804-8.394
				c40.743-11.78,85.598-36.295,136.691-100.573c19.326-22.32,34.341-30.486,52.556-30.486c18.215,0,33.23,8.166,52.556,30.486
				c51.093,64.278,95.948,88.793,136.691,100.573c25.549,7.387,52.277,10.296,78.804,8.394
				c149.632-10.728,176.465-144.897,176.465-144.897S980.28,651.032,911.687,631.434z"></path>
		</g>
        <path fill="#E65F00" d="M192.905,447.724c0.279,8.435,1.204,16.561,2.672,24.327C249.955,300.493,410.683,175.807,600,175.807
			c189.318,0,350.046,124.687,404.424,296.247c1.469-7.768,2.394-15.898,2.673-24.335c0.27-8.222,2.239-15.991,5.545-23.002
			C944.276,264.342,785.057,151.632,600,151.632s-344.276,112.71-412.641,273.084C190.666,431.728,192.635,439.499,192.905,447.724z
			"></path>
        <path fill="#E65F00" d="M145.008,392.516c6.243,1.119,12.062,3.209,17.375,6.036C238.789,233.195,406.202,118.163,600,118.163
			s361.21,115.03,437.617,280.386c5.307-2.824,11.118-4.911,17.351-6.029c2.047-0.365,4.108-0.588,6.169-0.737
			C981.62,216.334,804.83,93.988,600,93.988c-204.829,0-381.619,122.345-461.135,297.796
			C140.922,391.933,142.977,392.154,145.008,392.516z"></path>
        <path fill="#E65F00" d="M698.262,1071.859c-37.295,9.291-58.13,9.883-98.262,9.883c-49.614,0-91.993-5.874-137.064-19.866
			l-49.316,8.441c57.708,22.95,120.59,35.6,186.38,35.6c52.652,0,99.051-6.744,146.82-21.736L698.262,1071.859z"></path>
        <path fill="#E65F00" d="M1150,890.83c-30.858-19.418-65.995-34.434-104.24-45.856c-0.885-0.275-1.814-0.554-2.76-0.835
			c29.849-53.935,50.146-113.858,58.563-177.482c-8.796,16.338-19.849,32.851-33.748,48.58
			c-10.698,43.403-27.314,84.496-48.906,122.404c-0.309-0.077-0.515-0.128-0.515-0.128c-11.065-2.726-22.378-5.153-33.865-7.359
			c13.859-23.057,25.718-47.447,35.3-72.946c-5.433,3.659-11.089,7.206-17.043,10.591c-5.688,3.233-11.481,6.265-17.363,9.105
			c-7.79,16.899-16.703,33.17-26.576,48.779c-185.043-29.023-414.712,1.105-593.651,26.241
			c-27.89-7.287-60.697-13.769-98.716-17.829c-7.267-0.777-14.308-1.396-21.151-1.885c-11.566-17.574-21.875-36.043-30.754-55.307
			c-5.881-2.839-11.673-5.87-17.359-9.103c-5.955-3.385-11.612-6.933-17.046-10.593c9.685,25.772,21.735,50.385,35.787,73.66
			c-6.978-0.118-13.798-0.141-13.798-0.141c-8.602,0.051-16.752,0.327-24.508,0.771c-19.924-36.189-35.342-75.191-45.465-116.26
			c-13.899-15.729-24.952-32.242-33.748-48.58c7.882,59.579,26.18,115.914,52.983,167.125c-2.717,0.321-4.414,0.543-4.414,0.543
			c-10.074,1.324-19.18,2.924-27.261,4.637c-0.072,0.018-0.139,0.035-0.212,0.053c-31.15,6.651-48.137,15.196-51.755,17.416
			C51.828,864.676,50.583,871.134,50,874.058c11.286,42.105,18.463,154.28,5.904,218.896c0,9.532,36.554,13.946,305.291-37.288
			c47.16-8.485,94.492-15.847,141.973-22.239c41.828-5.052,82.119-8.611,120.654-10.889c11.993,4.697,26.03,9.829,42.435,15.435
			c0.766,0.262,1.529,0.523,2.299,0.774c47.196,15.378,85.574,26.122,129.142,35.677c153.912,33.755,285.851,34.122,308.862,29.479
			c35.486-7.168,39.539-21.098,30.737-35.715C1136.397,1061.969,1123.123,965.885,1150,890.83z M428.926,1009.499
			c-6.107,0.952-12.214,1.94-18.32,2.956c-5.842,0.963-11.682,1.966-17.554,2.986c-11.473,1.994-22.944,4.051-34.406,6.241
			c-0.372,0.071-0.729,0.138-1.1,0.209c-6.735,1.286-13.338,2.538-19.838,3.764c-0.462,0.088-0.916,0.173-1.378,0.26
			c-6.351,1.197-12.61,2.371-18.757,3.515c-71.329,13.289-128.158,22.904-170.039,28.765c0.259-1.202,1.005-2.097,0.991-2.102
			c7.102-1.291,14.197-2.639,21.271-4.11c7.925-1.647,29.618-4.582,23.288-14.905c-2.107-3.435-7.295-4.84-12.01-4.978
			c-25.89-0.752-51.757-1.716-77.623-2.705c-5.867-4.975,0.014-7.373,0.008-7.429c7.195-1.172,14.394-2.307,21.583-3.53
			c14.643-2.491,29.299-5.033,43.869-8.062c7.925-1.647,29.617-4.582,23.288-14.905c-2.107-3.436-7.295-4.839-12.012-4.977
			c-26.421-0.768-52.817-1.755-79.212-2.766c-3.657-3.113,0.072-5.064,0.04-5.118c8.766-1.418,17.534-2.803,26.292-4.292
			c14.642-2.491,29.298-5.032,43.867-8.062c7.926-1.647,29.618-4.582,23.289-14.906c-2.107-3.434-7.295-4.839-12.012-4.977
			c-25.976-0.755-51.93-1.722-77.882-2.716c-3.931-2.332,0.183-3.676,0.21-3.724c5.642-0.926,11.286-1.822,16.923-2.781
			c14.642-2.49,29.299-5.033,43.868-8.062c7.926-1.647,29.618-4.583,23.288-14.906c-2.106-3.434-7.294-4.84-12.011-4.977
			c-2.702-0.079-5.401-0.184-8.102-0.267c-1.984-0.98,0.041-2.05,0.042-2.052c0.212-0.424,4.639-0.42,5.261-0.478
			c2.06-0.191,4.119-0.386,6.178-0.585c4.156-0.402,8.309-0.829,12.463-1.249c23.628-2.385,47.216-5.282,70.759-8.375
			c26.394-3.467,54.744-7.458,84.217-11.614c129.457-18.249,290.567-40.958,440.562-40.958c82.603,0,153.16,6.742,212.71,20.398
			c3.98,0.913,7.917,1.853,11.801,2.826c4.014,1.008,7.98,2.046,11.89,3.12c0.261,0.167,1.521,1.059-0.002,1.715
			c-3.887-0.333-7.775-0.636-11.662-0.98c-4.163-0.368-8.872,0.329-11.082,3.132c-1.562,1.984-1.745,4.441-0.189,6.515
			c2.28,3.04,6.382,4.44,9.771,5.785c15.252,6.054,31.407,10.156,47.112,14.867c6.884,2.023,13.785,3.982,20.677,5.983
			c0,0,2.441,0.971,0.012,2.017c-25.03-1.977-50.057-3.973-75.084-6.188c-4.163-0.368-8.872,0.33-11.081,3.133
			c-6.638,8.425,12.138,13.255,18.941,15.526c12.502,4.175,25.131,7.931,37.753,11.641c10.875,3.195,21.771,6.302,32.658,9.393
			c0,0,2.29,1.741,0.013,2.448c-26.818-2.116-53.635-4.24-80.45-6.614c-4.163-0.368-8.872,0.33-11.081,3.133
			c-6.639,8.424,12.138,13.256,18.941,15.527c12.501,4.175,25.13,7.931,37.753,11.64c12.554,3.689,25.132,7.268,37.711,10.829
			c0,0,4.01,1.391,0.007,2.628c-29.477-2.326-58.951-4.638-88.423-7.246c-4.163-0.368-8.872,0.329-11.081,3.133
			c-6.639,8.424,12.139,13.256,18.94,15.527c9.929,3.316,19.943,6.343,29.934,9.333c0,0,7.588,3.579-0.031,3.34
			c-47.881-8.498-109.932-16.886-184.094-21.422c-5.657-0.346-11.412-0.659-17.21-0.958c-0.361-0.018-0.713-0.04-1.074-0.057
			c-6.01-0.307-12.106-0.581-18.284-0.835c-24.645-1.011-50.397-1.604-77.342-1.604
			C635.22,985.313,531.997,993.439,428.926,1009.499z M1066.967,1072.15c-54.861,0-133.981-6.397-219.652-22.328
			c0.001,0,0.001,0,0.001,0c-7.074-1.315-14.192-2.695-21.343-4.141c-0.088-0.018-0.176-0.036-0.264-0.054
			c-7.121-1.441-14.276-2.947-21.459-4.524c-12.21-2.681-24.489-5.565-36.793-8.648c-4.881-1.223-9.766-2.485-14.651-3.771
			c-0.792-0.209-1.582-0.415-2.373-0.626c-5.023-1.333-10.047-2.694-15.067-4.1c10.279,0.869,21.044,1.774,32.245,2.711
			c0.116,0.009,0.235,0.019,0.35,0.029c3.317,0.278,6.668,0.557,10.064,0.841c0.341,0.029,0.67,0.056,1.012,0.084c0,0,0,0,0.001,0
			c13.529,1.129,27.661,2.302,42.431,3.522c105.757,8.738,212.654,17.293,240.829,19.543c11.241,6.312,22.616,13.897,31.32,20.683
			C1088.328,1071.763,1079.677,1072.15,1066.967,1072.15z"></path>
	</g>
    <g>
		<path fill="#E65F00" d="M314.082,937.388c-0.22,0.207-0.291,0.488-0.217,0.84l1.002,4.697c0.044,0.2,0.095,0.389,0.159,0.559
			c0.061,0.173,0.095,0.389,0.098,0.654c0.196,1.172,0.508,2.32,0.931,3.444c0.427,1.124,0.687,2.282,0.782,3.474
			c0.247,2.906,0.711,5.696,1.388,8.374c0.677,2.682,1.307,5.384,1.886,8.11l0.21,0.985l0.196,0.911l0.21,0.982
			c0.505,2.377,0.975,4.704,1.409,6.986s0.948,4.578,1.544,6.878c0.081,0.142,0.125,0.278,0.129,0.41
			c0,0.132,0.017,0.271,0.051,0.423l2.032,9.543c0.078,0.356,0.257,0.582,0.542,0.677c0.244,0.159,0.518,0.207,0.823,0.142
			l2.194-0.467c0.305-0.064,0.559,0.014,0.765,0.234c0.244,0.159,0.4,0.389,0.464,0.691l1.324,6.214
			c0.064,0.301,0.017,0.576-0.142,0.819c-0.098,0.284-0.325,0.467-0.677,0.542l-0.908,0.193l-1.06,0.227l-13.789,2.939l-0.908,0.193
			c-0.301,0.064-0.61-0.003-0.914-0.2c-0.268-0.261-0.42-0.494-0.464-0.694l-1.324-6.211c-0.044-0.203,0.003-0.477,0.142-0.823
			c0.196-0.308,0.447-0.491,0.752-0.555l2.878-0.616c0.301-0.064,0.532-0.22,0.694-0.464c0.217-0.203,0.291-0.484,0.217-0.836
			l-0.809-3.789l-0.146-0.681c-0.105-0.505-0.156-0.864-0.149-1.077c-0.108-0.505-0.163-0.887-0.166-1.151
			c-0.389-2.821-0.968-5.523-1.727-8.107c-0.762-2.58-1.385-5.249-1.862-7.995l-0.163-0.759l-0.163-0.759
			c-0.054-0.251-0.234-0.477-0.538-0.674c-0.308-0.2-0.586-0.274-0.84-0.22l-13.484,2.875c-0.251,0.054-0.477,0.234-0.674,0.542
			c-0.139,0.345-0.186,0.62-0.142,0.82l0.532,2.503c0.044,0.2,0.098,0.4,0.169,0.596c0.068,0.196,0.102,0.427,0.105,0.691
			c0.383,2.293,0.84,4.558,1.371,6.796c0.528,2.235,1.036,4.49,1.52,6.763l0.176,0.833l1.277,5.984l-4.819,2.293l9.092-1.937
			c0.352-0.074,0.633-0.003,0.836,0.217c0.244,0.159,0.4,0.393,0.464,0.694l1.324,6.211c0.064,0.305,0.017,0.579-0.139,0.823
			c-0.098,0.284-0.325,0.464-0.677,0.542l-0.911,0.193l-13.786,2.939l-1.06,0.224l-0.908,0.193c-0.305,0.068-0.61,0-0.914-0.2
			c-0.247-0.159-0.4-0.389-0.464-0.694l-1.324-6.211c-0.064-0.301-0.02-0.576,0.139-0.823c0.2-0.305,0.45-0.491,0.755-0.555
			l2.12-0.45c0.301-0.064,0.532-0.22,0.694-0.464c0.217-0.207,0.291-0.488,0.217-0.84l-0.599-2.804l-0.257-1.212
			c-0.484-2.272-0.999-4.497-1.544-6.678c-0.542-2.181-1.006-4.419-1.388-6.712c0.007-0.213-0.024-0.417-0.091-0.613
			c-0.071-0.196-0.125-0.396-0.169-0.599c-0.457-1.906-0.887-3.796-1.287-5.665c-0.396-1.866-0.745-3.745-1.043-5.638l-0.21-0.982
			l-1.338-6.288l-0.196-0.908c-0.461-2.912-0.975-5.76-1.541-8.54c-0.569-2.784-1.253-5.567-2.059-8.354
			c-0.105-0.24-0.163-0.45-0.176-0.633c-0.01-0.183-0.034-0.352-0.064-0.501l-0.068-0.305c-0.074-0.352-0.254-0.579-0.538-0.677
			c-0.247-0.156-0.518-0.203-0.823-0.139l-2.12,0.45c-0.305,0.064-0.61,0-0.914-0.2c-0.247-0.159-0.4-0.389-0.464-0.694
			l-1.324-6.211c-0.074-0.352-0.034-0.654,0.125-0.897s0.413-0.406,0.769-0.481l1.967-0.42l1.365-0.291
			c2.093-0.339,4.169-0.755,6.227-1.25c2.059-0.491,4.125-0.958,6.194-1.399l0.911-0.193c0.352-0.074,0.626-0.027,0.823,0.142
			c0.244,0.159,0.403,0.413,0.481,0.769l1.324,6.211c0.064,0.301,0.017,0.579-0.142,0.823c-0.098,0.284-0.325,0.464-0.677,0.538
			l-2.953,0.63c-0.708,0.152-0.985,0.579-0.836,1.287l3.698,17.345l0.129,0.606c0.169,0.549,0.315,1.111,0.44,1.69
			c0.122,0.582,0.234,1.097,0.332,1.554c-0.203,0.041-0.417,0.102-0.637,0.173c-0.223,0.074-0.433,0.264-0.63,0.572
			c-0.102,0.02-0.295,0.115-0.576,0.278l-0.86,0.423c-0.281,0.166-0.616,0.328-1.002,0.491c-0.389,0.163-0.775,0.335-1.158,0.521
			l3.105-0.66l0.606-0.129c2.828-0.867,5.631-1.504,8.422-1.913c2.79-0.41,5.516-1.06,8.178-1.944c0.2-0.305,0.274-0.582,0.22-0.836
			l-0.484-2.272l-0.244-1.138c-0.393-2.343-0.826-4.616-1.294-6.81c-0.467-2.198-1.036-4.494-1.703-6.884l-0.227-1.06
			c-0.074-0.352-0.135-0.698-0.179-1.029c-0.047-0.335-0.105-0.677-0.179-1.033l-0.146-0.681l-0.132-0.606
			c-0.074-0.352-0.254-0.579-0.538-0.677c-0.244-0.156-0.518-0.207-0.823-0.142l-2.878,0.616c-0.301,0.064-0.606-0.003-0.914-0.203
			c-0.268-0.261-0.42-0.491-0.464-0.691l-1.324-6.214c-0.074-0.352-0.034-0.65,0.125-0.897c0.159-0.244,0.417-0.403,0.769-0.481
			l0.911-0.193l1.06-0.227c3.776-0.857,7.562-1.663,11.361-2.421l1.365-0.291l1.967-0.42c0.352-0.075,0.63-0.027,0.823,0.142
			c0.244,0.159,0.406,0.417,0.481,0.769l1.324,6.211c0.064,0.305,0.017,0.579-0.142,0.823c-0.098,0.284-0.298,0.461-0.599,0.525
			l-2.198,0.467C314.475,936.988,314.241,937.144,314.082,937.388z"></path>
        <path fill="#E65F00" d="M387.731,984.414c0.237,0.166,0.393,0.427,0.457,0.782l1.155,6.244c0.054,0.305,0,0.576-0.166,0.816
			c-0.105,0.284-0.335,0.457-0.691,0.521l-10.129,1.873l-2.36,0.437c-0.254,0.047-0.582,0.119-0.985,0.22
			c-0.4,0.102-0.772,0.156-1.111,0.166c-0.339,0.01-0.654-0.051-0.938-0.18c-0.288-0.132-0.447-0.43-0.481-0.897
			c-0.047-0.83-0.122-1.646-0.213-2.442c-0.098-0.796-0.217-1.602-0.369-2.411l-0.295-1.602c-0.098-0.244-0.088-0.471,0.034-0.674
			c0.119-0.207,0.298-0.359,0.545-0.457c0.538-0.203,1.114-0.298,1.72-0.278c0.606,0.02,1.121-0.247,1.548-0.796
			c-0.464-1.073-0.877-2.191-1.25-3.356c-0.372-1.165-0.742-2.303-1.104-3.417c-0.366-1.114-0.789-2.204-1.273-3.271
			c-0.488-1.063-1.084-2.083-1.788-3.055c-0.207-0.278-0.461-0.427-0.752-0.454c-0.295-0.024-0.603,0.007-0.928,0.095
			c-0.325,0.085-0.677,0.176-1.053,0.271c-0.376,0.098-0.721,0.149-1.033,0.152l-2.516,0.464l-5.256,0.972
			c-0.711,0.132-1.073,0.565-1.097,1.304c-0.03,0.112-0.037,0.22-0.02,0.318c0.02,0.105,0.041,0.207,0.058,0.305
			c0.027,0.152,0.02,0.261-0.02,0.322c-0.288,1.575-0.352,3.2-0.2,4.88c0.152,1.676,0.2,3.363,0.146,5.052
			c-0.01,0.525,0.007,0.891,0.044,1.094c0.02,0.102,0.01,0.207-0.02,0.318c-0.064,0.223-0.078,0.437-0.041,0.64l-4.876,2.16
			l5.713-1.057c0.058,0.041,0.139,0.054,0.24,0.034l2.286-0.42c0.305-0.058,0.576-0.003,0.819,0.163
			c0.298,0.207,0.477,0.464,0.535,0.769l1.151,6.244c0.047,0.254-0.03,0.532-0.237,0.833c-0.21,0.298-0.44,0.474-0.694,0.521
			l-14.927,2.757c-0.305,0.054-0.606-0.02-0.908-0.227c-0.24-0.166-0.389-0.4-0.444-0.704l-1.155-6.244
			c-0.068-0.359-0.017-0.657,0.149-0.894c0.166-0.244,0.427-0.396,0.782-0.461l2.056-0.379c0.66-0.122,1.05-0.562,1.175-1.321
			c-0.037-0.203-0.044-0.518-0.017-0.941c0.014-0.213,0.01-0.369-0.007-0.471c0.01-0.213,0.02-0.45,0.024-0.714
			c0.003-0.264,0.003-0.552-0.003-0.867c-0.058-1.459-0.024-2.909,0.105-4.348c0.125-1.443,0.217-2.878,0.268-4.304
			c0.051-1.426,0.051-2.844,0-4.253c-0.051-1.409-0.237-2.845-0.559-4.307c-0.112-0.609-0.146-1.219-0.102-1.832
			c0.044-0.613,0.129-1.219,0.254-1.818c0.125-0.603,0.234-1.226,0.325-1.873c0.088-0.647,0.129-1.283,0.118-1.913
			c-0.034-1.043-0.102-2.052-0.207-3.031c-0.102-0.979-0.135-1.944-0.102-2.895c-0.061-0.62-0.02-1.256,0.122-1.913
			c-0.027-2.411,0.02-4.795,0.135-7.152c0.115-2.357-0.017-4.71-0.4-7.057c-0.251-1.368-0.254-2.733-0.007-4.094
			c0.247-1.355,0.376-2.719,0.386-4.087c-0.017-0.102-0.017-0.234,0.007-0.393c0.03-0.112,0.037-0.23,0.014-0.359
			c-0.024-0.125-0.02-0.244,0.014-0.356c0-0.264-0.095-0.508-0.295-0.735c-0.342-0.146-0.616-0.2-0.816-0.163l-0.762,0.139
			c-0.356,0.068-0.63,0.014-0.819-0.163c-0.24-0.166-0.393-0.427-0.461-0.782l-0.166-0.914l-0.41-2.208
			c-0.102-0.559-0.22-1.114-0.349-1.669c-0.129-0.552-0.193-1.117-0.193-1.697c0.058-0.535,0.315-0.847,0.772-0.928
			c0.457-0.085,0.782-0.173,0.975-0.261l0.992-0.183c1.47-0.271,3.031-0.559,4.683-0.863c1.649-0.305,3.214-0.569,4.697-0.789
			l1.067-0.2c0.508-0.091,1.016-0.186,1.524-0.281c0.508-0.091,1.006-0.237,1.493-0.433c0.152-0.027,0.342-0.01,0.562,0.054
			c0.332,0.095,0.61,0.308,0.826,0.637c0.433,0.918,0.681,1.91,0.745,2.973c0.068,1.063,0.349,2.099,0.853,3.109
			c0.176,0.389,0.207,0.698,0.091,0.928c-0.115,0.234-0.291,0.41-0.532,0.532c-0.24,0.125-0.518,0.254-0.833,0.393
			c-0.318,0.135-0.562,0.298-0.738,0.491c-0.217,0.247-0.227,0.552-0.027,0.911c0.196,0.356,0.352,0.708,0.471,1.053
			c0.088,0.193,0.179,0.413,0.278,0.657c0.098,0.247,0.2,0.515,0.308,0.809c0.62,1.934,1.338,3.837,2.157,5.706
			c0.816,1.873,1.49,3.81,2.018,5.811c0.43,1.758,1.08,3.451,1.961,5.073c0.877,1.622,1.615,3.349,2.218,5.181
			c0.176,0.389,0.349,0.762,0.521,1.124c0.173,0.362,0.345,0.738,0.522,1.124c0.176,0.389,0.352,0.762,0.525,1.124
			c0.169,0.362,0.318,0.742,0.444,1.138c1.033,3.59,2.211,7.064,3.539,10.413c1.327,3.352,2.76,6.776,4.301,10.271
			c0.43,0.918,0.819,1.818,1.168,2.699c0.345,0.88,0.684,1.791,1.016,2.726c0.156,0.288,0.342,0.437,0.555,0.45
			c0.342,0.146,0.613,0.2,0.816,0.163l1.829-0.339C387.267,984.184,387.538,984.238,387.731,984.414z M366.479,962.741l-2.052-5.134
			c-0.017-0.102-0.051-0.2-0.095-0.298c-0.044-0.095-0.074-0.196-0.095-0.298c-0.948-2.293-1.774-4.487-2.475-6.59
			c-0.704-2.103-1.571-4.24-2.604-6.41c-0.068-0.091-0.115-0.203-0.139-0.328c-0.024-0.129-0.071-0.237-0.139-0.328l-0.803-2.215
			c-0.159-0.288-0.274-0.423-0.352-0.41c-0.074,0.013-0.112,0.179-0.105,0.491c-0.047,0.325-0.064,0.657-0.054,0.996
			c0.01,0.342,0.02,0.667,0.024,0.982c0.017,0.362,0.027,0.704,0.03,1.016l-0.017,1.185c0.196,1.067,0.193,2.249-0.014,3.545
			c-0.207,1.3-0.268,2.465-0.179,3.501c-0.007,0.264-0.02,0.606-0.047,1.033c-0.024,1.002-0.014,1.984,0.034,2.946
			c0.047,0.962,0.108,1.937,0.183,2.919c-0.03,0.112-0.037,0.217-0.017,0.318c0.017,0.102,0.01,0.21-0.02,0.318
			c-0.02,0.477-0.037,0.952-0.054,1.429c-0.027,0.423-0.02,0.884,0.02,1.375c0.037,0.491,0.044,0.948,0.017,1.375l-2.475,1.087
			c-0.45,0.135-0.867,0.291-1.253,0.467c-0.389,0.18-0.816,0.281-1.283,0.315c0.606,0.152,1.199,0.163,1.778,0.027
			c0.579-0.132,1.151-0.227,1.72-0.278l1.524-0.281l8.225-1.52C366.472,963.845,366.712,963.435,366.479,962.741z"></path>
        <path fill="#E65F00" d="M409.709,980.421l6.116-1.002l0.074-0.014l2.218-0.362c0.305-0.051,0.606,0.031,0.901,0.244
			c0.237,0.169,0.383,0.41,0.433,0.715l1.029,6.268c0.058,0.356,0,0.65-0.169,0.891c-0.169,0.234-0.433,0.383-0.789,0.444
			l-16.051,2.635c-0.254,0.041-0.552-0.017-0.891-0.169c-0.237-0.169-0.386-0.433-0.444-0.789l-1.029-6.268
			c-0.051-0.305,0.01-0.579,0.179-0.816c0.213-0.295,0.474-0.467,0.779-0.518l2.14-0.352c0.305-0.051,0.542-0.193,0.715-0.43
			c0.23-0.196,0.315-0.474,0.257-0.83l-0.566-3.444l-0.19-1.148c-0.759-2.702-1.266-5.411-1.527-8.117
			c-0.264-2.709-0.647-5.435-1.148-8.181c-0.034-0.203-0.081-0.406-0.139-0.606c-0.061-0.2-0.105-0.403-0.139-0.606
			c-0.308-1.886-0.582-3.783-0.816-5.682c-0.23-1.9-0.498-3.769-0.799-5.604c-0.034-0.203-0.054-0.396-0.058-0.582
			c-0.003-0.18-0.027-0.4-0.068-0.657c-0.034-0.203-0.078-0.389-0.132-0.565c-0.058-0.173-0.105-0.389-0.146-0.643
			c-0.034-0.203-0.054-0.396-0.058-0.582c-0.003-0.183-0.027-0.4-0.068-0.657c-0.085-0.193-0.169-0.549-0.251-1.057
			c-0.372-1.93-0.701-3.854-0.989-5.77c-0.288-1.92-0.616-3.844-0.985-5.774l-0.19-1.148c-0.125-0.765-0.264-1.527-0.413-2.289
			c-0.152-0.762-0.291-1.524-0.417-2.289l-0.176-1.07l-0.061-0.386l4.981-2.154l-6.343,1.043l-2.14,0.352
			c-0.356,0.058-0.654,0.003-0.891-0.166s-0.383-0.43-0.444-0.782l-0.372-2.272l-0.135-0.833c0-0.312-0.061-0.677-0.179-1.097
			c-0.122-0.42-0.213-0.82-0.274-1.199c-0.064-0.379-0.078-0.715-0.047-1.002c0.03-0.291,0.213-0.515,0.555-0.674
			c0.491-0.186,0.867-0.301,1.121-0.342c0.389-0.169,0.738-0.278,1.046-0.328c1.663-0.379,3.319-0.728,4.968-1.053
			c1.646-0.322,3.319-0.569,5.019-0.745c0.261,0.01,0.647-0.027,1.158-0.112c0.264,0.01,0.484,0,0.664-0.03
			c0.176-0.027,0.369-0.058,0.572-0.091l1.91-0.315c0.356-0.058,0.654,0,0.891,0.169c0.237,0.169,0.386,0.43,0.444,0.782
			l1.006,6.133c0.058,0.352,0.003,0.647-0.163,0.88c-0.169,0.237-0.427,0.383-0.775,0.44l-2.181,0.356
			c-0.701,0.115-0.992,0.532-0.874,1.246l0.376,2.296l0.2,1.222c0.152,0.918,0.301,1.839,0.454,2.756
			c0.149,0.918,0.325,1.832,0.528,2.743c0.024,0.152,0.064,0.315,0.118,0.491c0.054,0.173,0.102,0.362,0.132,0.565
			c0.42,1.923,0.738,3.847,0.948,5.777c0.213,1.93,0.505,3.86,0.874,5.791c0.041,0.257,0.064,0.474,0.068,0.657
			c0.003,0.186,0.024,0.379,0.058,0.582l0.2,1.222c0.085,0.511,0.122,0.897,0.112,1.162c0.068,0.406,0.135,0.816,0.203,1.222
			c0.064,0.41,0.105,0.823,0.122,1.239c0.064,1.036,0.234,2.055,0.505,3.058l0.163,0.996c0.41,1.873,0.775,3.779,1.094,5.716
			c0.318,1.94,0.657,3.847,1.019,5.726c0.085,0.196,0.129,0.4,0.139,0.606c0.007,0.21,0.054,0.41,0.139,0.606l0.389,2.374
			c0.085,0.508,0.119,0.897,0.112,1.158c0.058,0.359,0.105,0.718,0.139,1.08c0.03,0.359,0.081,0.745,0.149,1.151l0.213,1.3
			l0.891,5.435L409.709,980.421z"></path>
        <path fill="#E65F00" d="M466.152,971.603l6.668-0.962l0.23-0.034l1.917-0.278c0.254-0.037,0.528,0.054,0.823,0.274
			c0.291,0.217,0.454,0.454,0.491,0.711l0.908,6.285c0.037,0.254-0.054,0.528-0.271,0.823c-0.22,0.291-0.457,0.457-0.711,0.494
			l-1.995,0.288l-1.304,0.186c-2.299,0.332-4.626,0.731-6.986,1.206c-2.357,0.467-4.724,0.613-7.094,0.437
			c-0.251-0.278-0.389-0.518-0.42-0.721l-0.908-6.288c-0.027-0.203,0.037-0.474,0.196-0.809c0.22-0.295,0.457-0.457,0.711-0.494
			l2.147-0.308c0.359-0.054,0.549-0.186,0.569-0.396c0.027-0.163-0.003-0.389-0.098-0.691c-0.308-0.322-0.566-0.65-0.769-0.985
			c-0.132-0.19-0.268-0.403-0.406-0.643c-0.125-0.139-0.318-0.4-0.582-0.779c-0.125-0.139-0.237-0.291-0.339-0.457
			c-0.105-0.169-0.22-0.349-0.352-0.538c-0.119-0.088-0.196-0.193-0.24-0.315c-0.047-0.125-0.125-0.23-0.244-0.318
			c-0.132-0.19-0.234-0.359-0.305-0.505c-0.074-0.146-0.176-0.315-0.308-0.501c-0.074-0.149-0.176-0.315-0.308-0.505
			c-0.068-0.095-0.119-0.19-0.159-0.291c-0.041-0.098-0.095-0.193-0.159-0.288c-0.068-0.095-0.119-0.18-0.152-0.254
			c-0.037-0.071-0.091-0.156-0.156-0.251c-0.064-0.095-0.132-0.19-0.196-0.284c-0.068-0.095-0.132-0.19-0.196-0.284
			c-0.135-0.19-0.237-0.359-0.308-0.505c-0.119-0.085-0.244-0.223-0.372-0.413c-0.135-0.19-0.247-0.356-0.349-0.498
			c-0.098-0.142-0.21-0.284-0.332-0.423c-0.183-0.18-0.406-0.461-0.67-0.843c-0.125-0.139-0.234-0.264-0.328-0.383
			c-0.095-0.115-0.207-0.244-0.328-0.383c-0.193-0.234-0.356-0.467-0.494-0.711c-0.125-0.139-0.224-0.268-0.291-0.386
			c-0.071-0.122-0.166-0.251-0.291-0.389c-0.139-0.24-0.305-0.477-0.494-0.711c-0.064-0.095-0.135-0.203-0.203-0.325
			c-0.071-0.119-0.166-0.247-0.291-0.386c-0.247-0.278-0.437-0.511-0.569-0.701c-0.119-0.088-0.213-0.203-0.288-0.349
			c-0.071-0.146-0.166-0.264-0.284-0.352c-0.264-0.379-0.457-0.637-0.582-0.775c-0.132-0.19-0.247-0.369-0.349-0.535
			c-0.105-0.169-0.217-0.322-0.342-0.461c-0.183-0.183-0.315-0.372-0.393-0.569l-0.2-0.284c-0.064-0.095-0.129-0.176-0.19-0.247
			c-0.064-0.068-0.129-0.149-0.193-0.247c-0.132-0.186-0.396-0.383-0.789-0.589c-0.44-0.146-0.762-0.203-0.965-0.173l-0.765,0.108
			c-0.718,0.105-1.023,0.515-0.921,1.229l0.268,1.839l0.176,1.229c0.312,2.144,0.596,4.321,0.863,6.525
			c0.268,2.205,0.613,4.423,1.04,6.658c0.088,0.247,0.132,0.464,0.132,0.647s0.017,0.376,0.044,0.579l0.257,1.764l-5.035,1.978
			l6.285-0.908l2.912-0.42c0.254-0.037,0.528,0.054,0.823,0.274c0.234,0.173,0.372,0.413,0.417,0.721l0.908,6.285
			c0.044,0.308-0.024,0.576-0.196,0.813c-0.22,0.291-0.457,0.457-0.711,0.491l-1.995,0.288l-1.3,0.19
			c-2.316,0.23-4.582,0.518-6.803,0.864c-2.218,0.345-4.45,0.708-6.688,1.084c-0.308,0.044-0.61-0.044-0.901-0.261
			c-0.234-0.176-0.372-0.417-0.417-0.721l-0.908-6.288c-0.044-0.305,0.02-0.576,0.196-0.809c0.217-0.295,0.481-0.461,0.789-0.505
			l2.144-0.312c0.308-0.044,0.549-0.183,0.725-0.417c0.23-0.19,0.322-0.464,0.271-0.82l-0.044-0.308l-0.142-0.992l-0.176-1.226
			l-0.166-1.148c-0.037-0.257-0.061-0.488-0.061-0.694c-0.007-0.21-0.027-0.444-0.061-0.694c-0.288-1.991-0.599-3.965-0.935-5.923
			c-0.335-1.957-0.542-3.921-0.616-5.892l-0.2-1.378c-0.271-1.52-0.532-3.048-0.775-4.575c-0.247-1.527-0.481-3.058-0.701-4.589
			l-0.156-1.07l-1.104-7.656l-0.156-1.073l-0.166-1.148L432.228,935c-0.281-1.937-0.521-3.881-0.725-5.835
			c-0.203-1.951-0.498-3.888-0.88-5.811l-0.166-1.148c-0.081-0.196-0.132-0.386-0.159-0.562c-0.024-0.179-0.078-0.369-0.159-0.565
			l-0.176-1.226l-0.122-0.84l-0.21-1.456c-0.037-0.254-0.203-0.491-0.494-0.708c-0.335-0.159-0.606-0.227-0.809-0.196l-2.147,0.308
			c-0.359,0.051-0.654-0.01-0.887-0.186c-0.234-0.176-0.379-0.447-0.43-0.806l-0.904-6.268c-0.054-0.362,0.007-0.66,0.183-0.897
			c0.176-0.23,0.44-0.376,0.799-0.427l1.686-0.244l1.226-0.176c1.016-0.2,2.032-0.372,3.054-0.521
			c1.023-0.146,2.042-0.318,3.058-0.518l1.226-0.176c2.042-0.295,4.091-0.566,6.143-0.809c2.052-0.244,4.097-0.515,6.143-0.809
			l0.461-0.064c0.254-0.037,0.599-0.01,1.029,0.085c0.271,0.068,0.582,0.23,0.931,0.491l6.81,5.984
			c0.183,0.179,0.406,0.461,0.67,0.84c0.213,0.389,0.339,0.708,0.372,0.965l0.102,0.691l0.098,0.687
			c0.2,1.016,0.356,2.011,0.471,2.983c0.115,0.975,0.247,1.974,0.393,2.997l0.176,1.226c0.142,2.431,0.437,4.829,0.884,7.189
			c0.444,2.364,0.836,4.721,1.175,7.071l0.2,1.378l0.386,2.682c0.024,0.156,0.047,0.322,0.074,0.498c0.024,0.18,0,0.379-0.071,0.599
			c-0.132,0.538-0.261,0.897-0.393,1.073l-3.606,6.468c-0.146,0.437-0.203,0.759-0.173,0.962c0.024,0.156,0.047,0.322,0.071,0.501
			c0.027,0.18,0.098,0.312,0.213,0.4c1.355,1.788,2.631,3.573,3.827,5.354c1.195,1.785,2.367,3.586,3.518,5.401
			c0.461,0.664,0.958,1.311,1.493,1.937c0.532,0.626,1.057,1.266,1.568,1.923c0.071,0.146,0.234,0.359,0.484,0.637
			c0.312,0.369,0.606,0.772,0.877,1.202c0.261,0.379,0.528,0.772,0.796,1.178c0.268,0.403,0.532,0.796,0.796,1.175L466.152,971.603z
			 M451.943,940.402l-0.132-0.918l-0.166-1.145l-0.088-0.613l-0.098-0.687l-0.112-0.765c-0.051-0.356-0.068-0.64-0.044-0.85
			l-0.122-0.843c0.02-0.21,0-0.545-0.068-1.006l-0.132-0.914c-0.02-0.152-0.058-0.305-0.105-0.454
			c-0.047-0.149-0.081-0.301-0.102-0.454c-0.024-0.152-0.058-0.301-0.105-0.454c-0.051-0.149-0.085-0.298-0.105-0.454
			c-0.061-0.406-0.125-0.684-0.2-0.83l-0.122-0.84l-0.108-0.765c-0.051-0.356-0.064-0.613-0.034-0.776l-0.098-0.687
			c0.027-0.159,0.02-0.393-0.024-0.698c-0.014-0.102-0.017-0.207-0.007-0.312s0.01-0.21-0.007-0.312l-0.088-0.613l-0.074-0.535
			c-0.037-0.254-0.091-0.43-0.156-0.525l-0.078-0.535c-0.02-0.152-0.058-0.315-0.108-0.491c-0.054-0.176-0.088-0.339-0.112-0.491
			l-0.122-0.84l-0.098-0.691l-0.088-0.61c-0.03-0.203-0.132-0.552-0.308-1.05c-0.088-0.247-0.264-0.559-0.525-0.938l-2.503-3.231
			c-0.24-0.224-0.525-0.389-0.853-0.501c-0.44-0.142-0.762-0.2-0.965-0.173l-3.833,0.555c-0.715,0.102-1.019,0.511-0.918,1.226
			l0.166,1.145l0.122,0.843l0.152,1.07l0.078,0.535l0.098,0.687l0.102,0.687l0.122,0.843l0.118,0.84l0.135,0.918l0.132,0.918
			l0.132,0.918l0.132,0.918c0.014,0.102,0.02,0.23,0.017,0.386c-0.003,0.159,0.007,0.312,0.027,0.464
			c0.051,0.359,0.061,0.616,0.034,0.775l0.122,0.843l0.108,0.762l0.112,0.765l0.098,0.687c0.074,0.149,0.132,0.372,0.176,0.677
			c0.044,0.308,0.105,0.532,0.176,0.677l0.102,0.687c0.014,0.105,0.044,0.217,0.088,0.342c0.044,0.122,0.071,0.234,0.088,0.335
			l0.098,0.687l0.098,0.691c0.017,0.102,0.02,0.217,0.014,0.349c-0.01,0.132-0.003,0.247,0.01,0.349l0.112,0.765l0.098,0.687
			l0.098,0.687l0.684,4.741c-0.538,0.234-1.029,0.447-1.47,0.643c-0.444,0.193-0.836,0.366-1.178,0.518
			c-0.396,0.163-0.742,0.291-1.04,0.386c-0.152,0.024-0.305,0.071-0.45,0.142c-0.095,0.068-0.23,0.125-0.403,0.176
			c-0.176,0.051-0.312,0.112-0.406,0.176l0.461-0.068l1.148-0.166l4.602-0.664l6.898-0.996c0.254-0.037,0.491-0.2,0.711-0.494
			c0.22-0.288,0.308-0.562,0.274-0.816L451.943,940.402z"></path>
        <path fill="#E65F00" d="M512.074,904.307c0.173,0.132,0.393,0.447,0.66,0.931c0.203,0.393,0.322,0.715,0.352,0.972l1.101,8.994
			c0.037,0.308-0.034,0.579-0.213,0.806c-0.176,0.284-0.44,0.444-0.799,0.488l-7.304,0.894c-0.359,0.044-0.657-0.051-0.894-0.281
			c-0.223-0.129-0.356-0.372-0.4-0.731l-1.097-8.994c-0.041-0.308-0.173-0.552-0.403-0.731c-0.23-0.179-0.525-0.251-0.884-0.207
			l-9.841,1.202c-0.718,0.088-1.033,0.491-0.945,1.209l0.105,0.847l0.122,0.999c0.024,0.203,0.034,0.4,0.03,0.579
			c-0.003,0.186,0.003,0.352,0.024,0.505l0.132,1.077c0.163,1.334,0.237,2.702,0.227,4.108s0.068,2.777,0.23,4.108L492.39,922
			c0.017,0.156,0.037,0.322,0.061,0.501c0.02,0.18,0.068,0.342,0.139,0.491c-0.007,1.666,0.203,3.278,0.63,4.839
			c0.423,1.561,0.687,3.193,0.792,4.897c0.024,0.203,0.034,0.386,0.027,0.542s0.003,0.339,0.027,0.542
			c0.054,0.88,0.139,1.768,0.247,2.662c0.108,0.897,0.22,1.808,0.332,2.729c0.02,0.156,0.051,0.308,0.095,0.457
			c0.044,0.152,0.078,0.305,0.095,0.457c0.274,0.955,0.444,1.923,0.511,2.902c0.068,0.982,0.108,1.964,0.125,2.95
			c0.017,0.989,0.071,1.971,0.166,2.946c0.091,0.975,0.325,1.937,0.701,2.878c0.02,0.152,0.051,0.305,0.095,0.457
			c0.044,0.149,0.078,0.301,0.095,0.457c0.108,0.454,0.203,0.911,0.284,1.368s0.152,0.918,0.21,1.378l0.129,1.077
			c0.166,1.334,0.342,2.689,0.538,4.07c0.193,1.382,0.372,2.736,0.535,4.07l0.102,0.847l0.078,0.613l-5.069,1.947l6.075-0.742
			l0.23-0.03l7.531-0.918l0.772-0.095c0.454-0.108,0.975-0.186,1.571-0.23c0.589-0.047,0.904-0.359,0.938-0.935
			c0.061-1.619-0.051-3.193-0.342-4.717c-0.291-1.524-0.525-3.031-0.708-4.517l-0.047-0.386c-0.044-0.356,0.024-0.65,0.203-0.88
			s0.45-0.369,0.809-0.413l7.304-0.891c0.356-0.044,0.654,0.024,0.884,0.203c0.24,0.284,0.379,0.552,0.41,0.809l1.145,9.38
			c0.037,0.305,0.003,0.647-0.108,1.026c-0.142,0.538-0.281,0.894-0.417,1.067c-0.477,0.786-0.897,1.487-1.263,2.103
			c-0.369,0.616-0.708,1.151-1.013,1.609c-0.349,0.562-0.654,1.04-0.918,1.436c-0.129,0.224-0.261,0.433-0.393,0.633
			c-0.129,0.2-0.264,0.383-0.4,0.555c-0.22,0.342-0.42,0.704-0.606,1.09c-0.19,0.386-0.484,0.63-0.887,0.731
			c-1.917,0.494-3.864,0.85-5.838,1.063c-1.978,0.217-3.965,0.447-5.963,0.691l-0.769,0.095l-3,0.366
			c-0.359,0.044-0.701,0.007-1.026-0.108c-0.271-0.075-0.576-0.244-0.921-0.511l-6.766-6.197c-0.122-0.142-0.24-0.271-0.359-0.386
			c-0.119-0.115-0.24-0.271-0.366-0.461c-0.078-0.2-0.139-0.376-0.183-0.525c-0.044-0.152-0.074-0.305-0.095-0.457l-0.328-2.692
			l-0.139-1.151c-0.064-2.645-0.291-5.245-0.681-7.799c-0.389-2.553-0.796-5.13-1.216-7.731c-0.034-0.257-0.047-0.488-0.047-0.698
			c0-0.207-0.014-0.413-0.037-0.62c-0.288-2.773-0.623-5.527-1.009-8.263s-0.748-5.489-1.087-8.256l-0.102-0.847l-0.217-1.768
			l-0.112-0.921c-0.207-2.523-0.437-5.069-0.701-7.64c-0.261-2.57-0.65-5.124-1.168-7.66l-0.132-1.077l-0.047-0.386
			c-0.017-0.152-0.024-0.308-0.017-0.464s0.024-0.342,0.051-0.552c0.078-0.217,0.159-0.396,0.247-0.538
			c0.085-0.139,0.169-0.295,0.254-0.461l5.076-7.643c0.268-0.342,0.525-0.582,0.769-0.718c0.291-0.19,0.613-0.308,0.972-0.352
			c1.697-0.156,3.393-0.322,5.09-0.505c1.693-0.18,3.383-0.4,5.069-0.657l1.151-0.142c0.559-0.119,1.168-0.22,1.835-0.301
			c0.667-0.081,1.317-0.081,1.951-0.003c0.684,0.071,1.273,0.301,1.761,0.681c0.488,0.383,0.958,0.809,1.405,1.273
			c0.447,0.467,0.867,0.948,1.266,1.446c0.4,0.494,0.853,0.921,1.365,1.277c0.23,0.179,0.42,0.352,0.572,0.515
			c0.149,0.163,0.312,0.312,0.484,0.447c0.115,0.091,0.23,0.207,0.352,0.349c0.115,0.088,0.22,0.193,0.312,0.312
			C511.858,904.11,511.959,904.215,512.074,904.307z"></path>
        <path fill="#E65F00" d="M571.21,890.727c0.237,0.288,0.366,0.535,0.386,0.742l0.623,6.319c0.02,0.207-0.058,0.474-0.23,0.803
			c-0.234,0.281-0.477,0.433-0.735,0.461l-2.235,0.22c-0.359,0.037-0.633,0.166-0.816,0.393c-0.19,0.173-0.268,0.44-0.234,0.799
			l0.041,0.386c0.091,0.924,0.105,1.873,0.044,2.838c-0.058,0.965,0.01,1.93,0.21,2.895c0.572,3.163,0.985,6.299,1.239,9.414
			c0.257,3.112,0.542,6.261,0.857,9.448c0.051,0.515,0.125,0.999,0.22,1.456c0.098,0.457,0.196,0.941,0.301,1.449
			c0.176,0.762,0.227,1.524,0.146,2.282c-0.081,0.762-0.054,1.551,0.078,2.367c0.616,4.141,1.117,8.283,1.5,12.421
			c0.383,4.138,0.728,8.293,1.036,12.465c0.017,0.152,0.017,0.308,0.007,0.467c-0.01,0.156-0.031,0.339-0.061,0.549
			c-0.115,0.427-0.261,0.779-0.44,1.057c-0.674,1.053-1.26,1.964-1.754,2.743c-0.494,0.772-0.924,1.412-1.29,1.917l-1.016,1.5
			c-0.095,0.112-0.186,0.251-0.271,0.417c-0.095,0.112-0.186,0.237-0.274,0.376c-0.091,0.139-0.183,0.264-0.274,0.379
			c-0.406,0.61-0.894,0.945-1.46,0.999c-1.598,0.105-3.19,0.264-4.778,0.471c-1.588,0.21-3.159,0.43-4.721,0.664
			c-1.561,0.23-3.136,0.427-4.727,0.582c-1.595,0.159-3.197,0.21-4.809,0.163l-0.85,0.085c-0.308,0.03-0.65-0.014-1.023-0.132
			c-0.433-0.166-0.735-0.342-0.911-0.532l-6.61-6.275c-0.352-0.379-0.586-0.671-0.711-0.864c-0.071-0.2-0.125-0.376-0.166-0.528
			c-0.044-0.152-0.071-0.305-0.085-0.457l-0.041-0.386c-0.21-2.157-0.386-4.307-0.518-6.448c-0.135-2.14-0.335-4.287-0.596-6.441
			c-0.647-5.486-1.226-10.955-1.737-16.403c-0.515-5.449-1.016-10.924-1.507-16.43c-0.163-1.642-0.352-3.285-0.565-4.924
			c-0.213-1.639-0.4-3.281-0.562-4.927l-0.115-1.155l-0.03-0.308c-0.037-0.359-0.19-0.603-0.461-0.731
			c-0.227-0.186-0.494-0.264-0.803-0.234l-2.157,0.213c-0.308,0.03-0.606-0.068-0.887-0.301c-0.227-0.183-0.352-0.433-0.383-0.742
			l-0.626-6.319c-0.031-0.308,0.047-0.576,0.234-0.803c0.23-0.281,0.501-0.437,0.809-0.467l0.924-0.091l14.412-1.426l0.85-0.081
			c0.308-0.031,0.603,0.071,0.884,0.301c0.227,0.186,0.356,0.43,0.386,0.738l0.623,6.322c0.031,0.308-0.047,0.576-0.23,0.799
			c-0.234,0.284-0.505,0.44-0.813,0.471l-2.235,0.22c-0.718,0.071-1.043,0.467-0.972,1.185l0.03,0.308
			c0.017,0.156,0.044,0.322,0.088,0.498c0.044,0.18,0.051,0.396,0.027,0.66c0.295,5.107,0.752,10.118,1.368,15.039
			s1.124,9.929,1.524,15.029c0.349,4.064,0.748,8.097,1.195,12.099c0.447,4.003,0.87,8.036,1.273,12.093l0.105,1.08l0.037,0.386
			l-5.11,1.825l6.319-0.623l14.954-1.476c0.359-0.037,0.606-0.166,0.738-0.386c0.139-0.169,0.193-0.433,0.156-0.792
			c-0.715-9.319-1.646-18.618-2.794-27.897c-1.151-9.279-2.055-18.581-2.719-27.907c0.027-0.261,0.017-0.481-0.024-0.657
			c-0.044-0.176-0.071-0.318-0.081-0.42l-0.037-0.386l5.195-1.758l-8.632,0.85c-0.257,0.027-0.528-0.074-0.809-0.308
			c-0.227-0.183-0.352-0.43-0.383-0.742l-0.389-3.928l-0.074-0.772c-0.098-0.457-0.166-0.996-0.2-1.615
			c-0.037-0.62,0.227-0.982,0.786-1.09c0.254-0.074,0.66-0.142,1.226-0.196c0.207-0.02,0.396-0.051,0.576-0.095
			c0.176-0.044,0.369-0.078,0.576-0.098l11.791-1.165l1.233-0.122l1.155-0.112C570.658,890.392,570.929,890.497,571.21,890.727z"></path>
        <path fill="#E65F00" d="M628.419,886.454c0.22,0.193,0.315,0.444,0.288,0.755c-0.034,0.264-0.037,0.562-0.014,0.894
			c0.024,0.335,0.02,0.633-0.014,0.894c-0.03,0.315-0.03,0.65-0.003,1.009c-0.078,2.492,0.047,4.954,0.379,7.389
			c0.332,2.435,0.538,4.893,0.613,7.372c0.024,0.308-0.085,0.603-0.325,0.877c-0.19,0.224-0.44,0.342-0.748,0.366l-6.258,0.454
			c-0.308,0.024-0.576-0.061-0.796-0.254c-0.274-0.237-0.423-0.511-0.447-0.819l-0.64-8.808l2.584-0.806l2.58-0.809l-1.7,0.122
			l-3.783,0.274c-0.464,0.034-0.928,0.058-1.395,0.064c-0.464,0.007-0.901,0.051-1.311,0.132c-0.565,0.041-1.121,0.044-1.669,0.007
			c-0.545-0.041-1.094,0.064-1.646,0.312c-0.406,0.135-0.593,0.406-0.562,0.82c0.02,0.982,0.034,1.923,0.051,2.828
			c0.014,0.908,0.054,1.849,0.125,2.828c0.047,1.341,0.22,2.662,0.521,3.962c0.301,1.297,0.423,2.621,0.366,3.972
			c-0.02,0.417-0.044,0.83-0.064,1.246c-0.024,0.417-0.044,0.833-0.064,1.246c-0.041,0.884,0.034,1.72,0.22,2.509
			c0.186,0.789,0.312,1.622,0.376,2.496l0.179,2.472l0.18,2.472c0.19,4.077,0.406,8.137,0.65,12.184
			c0.24,4.047,0.562,8.1,0.958,12.16c0.142,1.233,0.312,2.489,0.508,3.769c0.196,1.277,0.288,2.54,0.274,3.783
			c-0.864,0.22-1.754,0.427-2.672,0.623c-0.918,0.193-1.805,0.454-2.662,0.775c0.725-0.003,1.46-0.03,2.208-0.085
			c0.745-0.054,1.504-0.108,2.276-0.163l1.47-0.108c0.312,0.027,0.647-0.007,1.002-0.112c0.352-0.102,0.698-0.166,1.033-0.19
			c0.335-0.027,0.633-0.007,0.897,0.051c0.261,0.058,0.457,0.264,0.589,0.616c0.264,0.809,0.308,1.609,0.135,2.398
			c-0.176,0.789-0.183,1.619-0.017,2.486c0.081,0.41,0.176,0.816,0.284,1.222c0.108,0.406,0.149,0.816,0.129,1.233
			c-0.098,0.112-0.19,0.247-0.281,0.41s-0.19,0.247-0.291,0.254c-0.975,0.122-1.92,0.166-2.828,0.129
			c-0.908-0.041-1.849,0.003-2.824,0.125c-0.254,0.071-0.535,0.105-0.847,0.102c-0.312-0.003-0.596,0.003-0.853,0.024
			c-0.562,0.091-1.114,0.156-1.656,0.196c-0.538,0.041-1.094,0.078-1.659,0.122l-2.008,0.146c-0.417-0.024-0.867,0.01-1.351,0.098
			c-0.488,0.085-0.962,0.146-1.426,0.18c-0.464,0.034-0.867-0.003-1.209-0.105c-0.345-0.105-0.562-0.389-0.643-0.847
			c-0.423-2.249-0.67-4.585-0.745-7.013c-0.014-0.207,0.064-0.369,0.237-0.484c0.173-0.115,0.389-0.183,0.647-0.203
			c0.305-0.075,0.64-0.098,1.006-0.071c0.362,0.024,0.711,0.013,1.043-0.037c0.332-0.051,0.613-0.149,0.833-0.295
			c0.224-0.146,0.369-0.427,0.444-0.847l-0.095-1.314l-0.119-1.622c-0.125-1.751-0.251-3.488-0.376-5.215
			c-0.125-1.724-0.152-3.495-0.078-5.313c0.068-1.246-0.047-2.469-0.342-3.664c-0.295-1.192-0.538-2.404-0.728-3.634
			c-0.091-0.511-0.142-1.026-0.152-1.544c-0.01-0.515-0.01-1.033,0.003-1.551c0.034-0.261,0.054-0.521,0.061-0.782
			c0.007-0.257,0-0.518-0.017-0.775c-0.135-3.251-0.305-6.502-0.515-9.746c-0.21-3.247-0.562-6.509-1.06-9.787
			c-0.308-2.099-0.511-4.206-0.613-6.322c-0.102-2.116-0.152-4.233-0.149-6.356c-0.027-0.359-0.176-0.609-0.444-0.745
			c-0.22-0.19-0.488-0.274-0.796-0.254l-4.71,0.342c-0.772,0.058-1.134,0.447-1.08,1.165l0.65,8.964
			c0.02,0.308-0.088,0.599-0.325,0.877c-0.193,0.22-0.44,0.342-0.752,0.366l-1.002,0.071l-2.164,0.156
			c-0.366-0.024-0.775,0.007-1.236,0.091c-0.461,0.085-0.897,0.142-1.307,0.173c-0.413,0.03-0.779-0.034-1.101-0.193
			c-0.322-0.156-0.528-0.467-0.613-0.924c-0.312-1.48-0.406-2.936-0.278-4.368c0.129-1.432,0.037-2.889-0.278-4.368
			c-0.271-1.585-0.461-3.149-0.572-4.693c-0.112-1.548-0.017-3.078,0.288-4.602c0.071-0.42,0.261-0.681,0.562-0.779
			c0.305-0.102,0.66-0.166,1.073-0.196c3.099-0.118,6.234-0.23,9.411-0.332c3.176-0.102,6.309-0.288,9.394-0.565
			c0.877-0.064,1.72-0.203,2.533-0.417c0.813-0.213,1.656-0.352,2.533-0.417c2.479-0.074,4.927-0.213,7.348-0.417
			C623.468,886.362,625.923,886.325,628.419,886.454z"></path>
        <path fill="#E65F00" d="M675.557,892.18c0.342,1.741,0.505,3.478,0.488,5.212c-0.02,1.734,0.014,3.501,0.102,5.306
			c0.01,0.257-0.135,0.447-0.44,0.562c-0.454,0.23-0.928,0.305-1.422,0.227c-0.494-0.081-0.972-0.058-1.432,0.068l-1.314,0.064
			l-3.637,0.176c-0.308,0.014-0.572-0.075-0.786-0.271c-0.217-0.196-0.335-0.474-0.352-0.836l-0.251-5.184l-0.041-0.85
			c-0.152-0.975-0.2-1.903-0.135-2.784c0.098-0.058,0.237-0.102,0.42-0.139c0.176-0.034,0.342-0.081,0.494-0.139
			c0.203-0.061,0.359-0.095,0.461-0.102c0.308-0.064,0.664-0.159,1.073-0.284c0.66-0.186,1.578-0.464,2.75-0.83l-4.639,0.224
			c-0.261,0.014-0.491,0.014-0.701-0.003c-0.207-0.017-0.386,0.007-0.538,0.064c-1.697,0.186-3.396,0.295-5.1,0.325
			c-1.707,0.03-3.41,0.088-5.11,0.169l-0.389,0.02c-0.102,0.003-0.23,0-0.386-0.02c-0.156-0.017-0.288-0.024-0.389-0.02
			c-0.725,0.034-1.067,0.413-1.029,1.134l0.047,1.006l0.058,1.161c-0.105,2.127-0.058,4.202,0.146,6.234s0.356,4.108,0.457,6.221
			l0.037,0.772l0.135,2.787c0.017,0.359,0.112,0.691,0.281,0.992c0.108,0.102,0.217,0.2,0.325,0.295
			c0.108,0.102,0.213,0.196,0.325,0.295c0.105,0.102,0.213,0.196,0.322,0.295c0.108,0.098,0.217,0.196,0.325,0.295
			c0.108,0.098,0.244,0.196,0.403,0.291c0.159,0.098,0.291,0.193,0.403,0.291c0.427,0.288,0.721,0.481,0.88,0.576
			c0.159,0.098,0.332,0.207,0.518,0.325c0.186,0.122,0.359,0.23,0.521,0.325c0.21,0.091,0.528,0.284,0.958,0.572l0.962,0.65
			c0.213,0.146,0.481,0.366,0.806,0.66l0.488,0.44c0.108,0.102,0.176,0.173,0.203,0.224c0.031,0.051,0.095,0.098,0.203,0.146
			c0.108,0.149,0.22,0.288,0.328,0.41c0.108,0.125,0.217,0.237,0.325,0.335c0.112,0.149,0.22,0.284,0.332,0.41
			c0.108,0.125,0.217,0.234,0.325,0.332c0.325,0.295,0.593,0.515,0.809,0.66c0.108,0.098,0.227,0.196,0.362,0.291
			c0.132,0.098,0.281,0.193,0.44,0.288c0.108,0.102,0.24,0.183,0.4,0.254c0.159,0.068,0.291,0.152,0.4,0.251
			c0.159,0.098,0.308,0.193,0.44,0.288c0.135,0.098,0.281,0.196,0.44,0.291c0.163,0.095,0.308,0.18,0.44,0.251
			s0.251,0.156,0.362,0.254c0.159,0.095,0.305,0.19,0.44,0.288c0.132,0.098,0.281,0.193,0.44,0.288
			c0.108,0.098,0.227,0.183,0.359,0.254c0.132,0.071,0.281,0.156,0.44,0.251c0.163,0.146,0.403,0.318,0.721,0.508l0.721,0.43
			l0.718,0.43l0.406,0.369c0.105,0.047,0.237,0.142,0.4,0.291c0.105,0.044,0.173,0.095,0.203,0.146
			c0.027,0.051,0.091,0.098,0.2,0.142c0.163,0.149,0.295,0.247,0.403,0.291c0.108,0.149,0.244,0.274,0.403,0.369
			c0.058,0.102,0.112,0.163,0.166,0.186c0.051,0.024,0.132,0.085,0.24,0.183l0.488,0.44c0.271,0.247,0.457,0.393,0.562,0.437
			l0.488,0.444c0.159,0.095,0.305,0.193,0.44,0.288c0.132,0.098,0.254,0.196,0.362,0.291c0.058,0.102,0.139,0.176,0.244,0.224
			c0.108,0.098,0.268,0.193,0.481,0.284c0.268,0.247,0.491,0.522,0.66,0.823c0.173,0.406,0.268,0.735,0.281,0.992l0.041,0.853
			l0.044,0.928c0.007,0.156,0.003,0.308-0.017,0.467c-0.017,0.156-0.024,0.308-0.014,0.464l0.041,0.85
			c-0.044,0.21-0.054,0.494-0.037,0.857l0.041,0.85c0.007,0.105,0,0.234-0.02,0.389c-0.017,0.156-0.024,0.312-0.014,0.464
			c0.007,0.156,0,0.298-0.02,0.43c-0.02,0.129-0.024,0.298-0.014,0.505c-0.041,0.21-0.051,0.518-0.03,0.931
			c-0.041,0.261-0.047,0.623-0.027,1.087c0.064,0.257,0.108,0.616,0.132,1.08c0.061,0.203,0.095,0.396,0.105,0.576
			c0.007,0.18,0.044,0.372,0.105,0.576c0.129,0.511,0.2,0.894,0.21,1.155c0.058,0.098,0.091,0.305,0.108,0.613
			c0.003,0.105,0.02,0.193,0.051,0.271c0.031,0.075,0.047,0.163,0.054,0.268l0.058,1.236l0.058,1.161
			c-0.044,0.21-0.051,0.572-0.024,1.087l0.051,1.084l0.037,0.772c0.017,0.362-0.041,0.728-0.18,1.094
			c-0.085,0.42-0.224,0.735-0.42,0.952l-5.235,7.155c-0.247,0.271-0.545,0.491-0.897,0.664c-2.57,0.332-5.103,0.545-7.606,0.64
			c-2.506,0.095-5.046,0.207-7.623,0.332l-1.161,0.058c-0.308,0.014-0.647-0.047-1.016-0.183c-0.264-0.091-0.555-0.284-0.88-0.579
			l-6.373-6.668c-0.112-0.152-0.22-0.288-0.328-0.413c-0.112-0.122-0.196-0.288-0.257-0.491c-0.173-0.352-0.268-0.684-0.281-0.996
			l-0.457-9.438c-0.017-0.308,0.098-0.596,0.345-0.867c0.146-0.213,0.396-0.332,0.759-0.349l7.348-0.356
			c0.359-0.017,0.65,0.071,0.867,0.268c0.213,0.196,0.332,0.477,0.349,0.836l0.45,9.282l-5.198,1.493l6.265-0.305l0.078-0.003
			l10.829-0.525c0.308-0.014,0.562-0.132,0.759-0.345c0.244-0.271,0.362-0.535,0.349-0.792l-0.051-1.084l-0.061-1.239
			c0.054-1.036,0.105-2.072,0.159-3.109c0.054-1.036-0.047-2.066-0.305-3.085c-0.139-0.718-0.213-1.463-0.224-2.238
			c-0.014-0.775-0.037-1.524-0.071-2.245l-0.044-0.928c-0.061-0.152-0.091-0.295-0.098-0.423c-0.007-0.129-0.041-0.271-0.098-0.423
			c-0.01-0.203-0.098-0.433-0.268-0.684c-0.064-0.254-0.176-0.481-0.342-0.681c-0.166-0.196-0.356-0.369-0.569-0.515
			c-0.108-0.098-0.19-0.159-0.24-0.183c-0.054-0.024-0.135-0.081-0.24-0.183c-0.163-0.095-0.403-0.291-0.728-0.582
			c-0.105-0.047-0.186-0.095-0.24-0.146c-0.054-0.047-0.132-0.095-0.237-0.142c-0.112-0.098-0.203-0.173-0.284-0.22
			c-0.078-0.047-0.173-0.119-0.281-0.22c-0.108-0.095-0.203-0.169-0.281-0.217c-0.081-0.047-0.176-0.122-0.281-0.22
			c-0.322-0.19-0.562-0.359-0.725-0.508c-0.054-0.047-0.295-0.217-0.721-0.508c-0.108-0.098-0.23-0.193-0.362-0.291
			c-0.135-0.098-0.281-0.193-0.44-0.288c-0.112-0.098-0.23-0.196-0.366-0.295c-0.132-0.095-0.254-0.193-0.362-0.291l-0.732-0.664
			c-0.213-0.142-0.481-0.362-0.806-0.657c-0.108-0.098-0.23-0.196-0.362-0.295c-0.135-0.095-0.257-0.193-0.362-0.291
			c-0.325-0.295-0.596-0.515-0.809-0.66c-0.159-0.095-0.4-0.288-0.725-0.582c-0.159-0.095-0.308-0.18-0.44-0.251
			s-0.278-0.156-0.437-0.251c-0.112-0.098-0.23-0.196-0.366-0.291c-0.132-0.098-0.278-0.193-0.44-0.291
			c-0.159-0.095-0.305-0.19-0.44-0.288c-0.132-0.098-0.281-0.193-0.44-0.288c-0.108-0.098-0.24-0.183-0.4-0.254
			c-0.159-0.068-0.291-0.152-0.4-0.251s-0.24-0.196-0.403-0.291c-0.159-0.095-0.295-0.193-0.4-0.291
			c-0.108-0.098-0.244-0.183-0.4-0.251c-0.159-0.071-0.295-0.152-0.403-0.254c-0.108-0.098-0.24-0.179-0.4-0.251
			c-0.156-0.071-0.291-0.152-0.4-0.251c-0.159-0.098-0.454-0.291-0.88-0.579c-0.159-0.095-0.454-0.288-0.88-0.579
			c-0.163-0.146-0.325-0.281-0.484-0.403c-0.163-0.119-0.322-0.227-0.481-0.325l-0.488-0.44c-0.105-0.047-0.268-0.169-0.484-0.366
			c-0.159-0.095-0.349-0.24-0.562-0.437l-0.488-0.44c-0.318-0.193-0.532-0.335-0.64-0.437l-0.406-0.366
			c-0.051,0-0.105-0.02-0.159-0.071l-0.244-0.22c-0.268-0.193-0.484-0.444-0.657-0.745c-0.169-0.301-0.261-0.633-0.278-0.992
			l-0.081-1.625l-0.054-1.161c-0.027-0.515-0.017-0.877,0.024-1.087l-0.058-1.158c-0.01-0.207-0.007-0.4,0.01-0.582
			c0.017-0.183,0.024-0.376,0.014-0.582c-0.014-0.257,0.003-0.44,0.051-0.545l-0.03-0.62l-0.034-0.698l-0.031-0.616l-0.03-0.62
			l-0.034-0.698l-0.03-0.616l-0.03-0.62l-0.051-1.084c-0.064-0.254-0.108-0.616-0.132-1.08l-0.044-0.928l-0.044-0.928
			c-0.02-0.413-0.061-0.721-0.122-0.924l-0.047-0.928c-0.007-0.156-0.027-0.322-0.061-0.501c-0.037-0.179-0.058-0.345-0.064-0.501
			l-0.051-1.084l-0.054-1.084l-0.108-2.242c-0.014-0.257,0.047-0.596,0.183-1.016c0.041-0.21,0.207-0.528,0.498-0.955l5.699-7.179
			c0.193-0.268,0.467-0.488,0.82-0.66c0.356-0.173,0.687-0.264,0.996-0.281l1.161-0.054c0.254-0.064,0.64-0.112,1.155-0.135
			l1.239-0.061c1.602,0.027,3.176-0.037,4.721-0.19s3.143-0.217,4.798-0.193l1.236-0.061l1.161-0.054
			c0.721-0.037,1.355,0.217,1.896,0.759l5.902,6.539C675.316,891.493,675.489,891.821,675.557,892.18z"></path>
        <path fill="#E65F00" d="M750.849,890.375c0.278,1.751,0.376,3.491,0.295,5.222c-0.085,1.734-0.115,3.502-0.095,5.31
			c0.003,0.257-0.149,0.44-0.457,0.545c-0.464,0.213-0.941,0.271-1.432,0.173s-0.969-0.091-1.432,0.017l-1.317,0.014l-3.64,0.044
			c-0.308,0.003-0.569-0.098-0.776-0.301c-0.21-0.203-0.318-0.488-0.322-0.85l-0.058-5.188l-0.01-0.853
			c-0.115-0.979-0.129-1.906-0.034-2.787c0.102-0.051,0.244-0.091,0.427-0.122c0.179-0.027,0.345-0.068,0.501-0.122
			c0.203-0.051,0.359-0.081,0.464-0.081c0.308-0.054,0.667-0.135,1.08-0.247c0.67-0.163,1.595-0.403,2.78-0.728l-4.646,0.054
			c-0.261,0.003-0.491-0.007-0.698-0.03s-0.386-0.007-0.542,0.044c-1.703,0.125-3.407,0.169-5.11,0.135
			c-1.703-0.031-3.41-0.037-5.113-0.017l-0.386,0.003c-0.105,0.003-0.234-0.01-0.389-0.034c-0.152-0.024-0.284-0.034-0.386-0.034
			c-0.725,0.007-1.08,0.376-1.073,1.097l0.014,1.006l0.014,1.162c-0.183,2.12-0.21,4.199-0.085,6.238s0.203,4.114,0.227,6.231
			l0.01,0.776l0.03,2.787c0.003,0.362,0.085,0.698,0.244,1.006c0.105,0.102,0.21,0.203,0.315,0.305
			c0.102,0.105,0.207,0.207,0.312,0.308c0.105,0.102,0.21,0.203,0.315,0.305c0.105,0.102,0.207,0.203,0.312,0.305
			c0.105,0.105,0.237,0.207,0.393,0.308c0.156,0.102,0.284,0.203,0.389,0.305c0.417,0.305,0.704,0.508,0.86,0.61
			c0.156,0.102,0.325,0.217,0.508,0.342c0.18,0.129,0.349,0.24,0.508,0.342c0.207,0.102,0.518,0.305,0.935,0.609l0.938,0.687
			c0.207,0.152,0.467,0.383,0.782,0.687l0.471,0.461c0.102,0.102,0.169,0.18,0.196,0.23c0.024,0.051,0.088,0.102,0.193,0.152
			c0.105,0.152,0.21,0.295,0.315,0.42c0.105,0.129,0.21,0.244,0.315,0.345c0.105,0.156,0.21,0.295,0.315,0.423
			s0.207,0.244,0.315,0.345c0.312,0.305,0.572,0.535,0.782,0.687c0.102,0.102,0.22,0.203,0.352,0.305
			c0.129,0.105,0.271,0.203,0.427,0.305c0.105,0.105,0.237,0.193,0.393,0.268c0.156,0.074,0.284,0.166,0.389,0.268
			c0.156,0.102,0.298,0.203,0.43,0.305c0.129,0.102,0.274,0.203,0.43,0.305c0.156,0.102,0.298,0.19,0.427,0.264
			c0.129,0.078,0.247,0.166,0.352,0.268c0.156,0.105,0.298,0.203,0.43,0.305c0.129,0.105,0.274,0.207,0.43,0.305
			c0.105,0.105,0.22,0.193,0.352,0.268c0.129,0.078,0.271,0.166,0.427,0.268c0.159,0.152,0.393,0.332,0.704,0.535l0.701,0.454
			l0.704,0.457l0.393,0.383c0.102,0.051,0.234,0.152,0.389,0.305c0.102,0.051,0.169,0.105,0.196,0.156
			c0.024,0.051,0.088,0.102,0.193,0.152c0.159,0.152,0.288,0.254,0.393,0.305c0.105,0.152,0.234,0.281,0.389,0.383
			c0.054,0.102,0.105,0.166,0.159,0.19c0.051,0.027,0.129,0.091,0.234,0.193l0.471,0.457c0.261,0.257,0.444,0.41,0.549,0.461
			l0.467,0.461c0.156,0.102,0.301,0.203,0.43,0.305c0.129,0.102,0.247,0.203,0.352,0.305c0.054,0.102,0.132,0.18,0.237,0.23
			c0.102,0.102,0.257,0.203,0.467,0.305c0.261,0.254,0.471,0.535,0.63,0.843c0.159,0.413,0.24,0.745,0.244,1.006l0.01,0.85
			l0.01,0.931c0,0.152-0.01,0.308-0.034,0.464s-0.034,0.308-0.034,0.464l0.01,0.853c-0.051,0.207-0.071,0.491-0.068,0.853l0.01,0.85
			c0,0.105-0.01,0.234-0.034,0.389c-0.027,0.156-0.037,0.308-0.034,0.464c0,0.156-0.01,0.298-0.034,0.427
			c-0.027,0.129-0.037,0.298-0.034,0.505c-0.047,0.207-0.071,0.518-0.068,0.928c-0.047,0.261-0.068,0.623-0.064,1.087
			c0.054,0.257,0.085,0.62,0.091,1.084c0.054,0.207,0.081,0.4,0.085,0.579c0,0.183,0.027,0.376,0.085,0.579
			c0.108,0.518,0.163,0.904,0.166,1.161c0.054,0.102,0.081,0.308,0.085,0.62c0.003,0.102,0.014,0.193,0.044,0.268
			c0.024,0.078,0.041,0.169,0.041,0.271l0.014,1.239l0.014,1.162c-0.051,0.207-0.071,0.569-0.064,1.087l0.014,1.084l0.007,0.775
			c0.003,0.359-0.068,0.721-0.22,1.087c-0.098,0.413-0.251,0.725-0.454,0.935l-5.496,6.956c-0.257,0.261-0.562,0.471-0.921,0.63
			c-2.58,0.237-5.124,0.356-7.626,0.359c-2.506,0.003-5.049,0.02-7.629,0.051l-1.161,0.01c-0.308,0.007-0.647-0.068-1.009-0.22
			c-0.261-0.102-0.545-0.301-0.86-0.61l-6.119-6.901c-0.108-0.152-0.21-0.295-0.315-0.42c-0.105-0.129-0.186-0.298-0.237-0.501
			c-0.159-0.359-0.24-0.694-0.247-1.006l-0.108-9.448c-0.003-0.308,0.122-0.593,0.379-0.857c0.152-0.207,0.41-0.315,0.769-0.318
			l7.359-0.085c0.362-0.003,0.647,0.098,0.857,0.301c0.207,0.203,0.315,0.488,0.318,0.847l0.108,9.296l-5.252,1.3l6.271-0.075h0.078
			l10.843-0.125c0.308-0.003,0.566-0.112,0.769-0.318c0.257-0.261,0.383-0.521,0.379-0.779l-0.01-1.084l-0.017-1.239
			c0.091-1.036,0.183-2.069,0.274-3.102c0.091-1.033,0.027-2.066-0.19-3.095c-0.112-0.721-0.159-1.47-0.142-2.245
			c0.017-0.776,0.02-1.524,0.014-2.245l-0.01-0.931c-0.054-0.152-0.081-0.295-0.085-0.423c0-0.129-0.027-0.271-0.081-0.427
			c-0.003-0.207-0.081-0.437-0.24-0.694c-0.054-0.257-0.159-0.488-0.318-0.694c-0.156-0.203-0.339-0.383-0.549-0.535
			c-0.105-0.102-0.183-0.166-0.234-0.19c-0.051-0.027-0.132-0.088-0.234-0.193c-0.156-0.102-0.393-0.305-0.704-0.61
			c-0.105-0.051-0.183-0.102-0.234-0.152c-0.054-0.051-0.132-0.102-0.234-0.152c-0.108-0.102-0.196-0.18-0.274-0.23
			c-0.078-0.051-0.169-0.125-0.274-0.23c-0.105-0.102-0.196-0.176-0.274-0.227c-0.078-0.051-0.169-0.129-0.274-0.23
			c-0.312-0.203-0.545-0.379-0.701-0.535c-0.054-0.047-0.288-0.227-0.704-0.532c-0.105-0.102-0.223-0.203-0.352-0.308
			c-0.132-0.102-0.274-0.203-0.43-0.305c-0.105-0.102-0.224-0.203-0.352-0.305c-0.129-0.102-0.247-0.203-0.352-0.305l-0.704-0.691
			c-0.21-0.152-0.471-0.383-0.782-0.687c-0.105-0.102-0.223-0.203-0.352-0.305c-0.132-0.102-0.247-0.203-0.352-0.308
			c-0.315-0.305-0.576-0.535-0.782-0.687c-0.156-0.102-0.393-0.305-0.704-0.609c-0.156-0.102-0.301-0.19-0.43-0.268
			c-0.129-0.075-0.271-0.163-0.427-0.268c-0.108-0.102-0.224-0.203-0.352-0.305c-0.132-0.102-0.274-0.203-0.43-0.305
			c-0.156-0.102-0.301-0.203-0.43-0.305c-0.132-0.102-0.274-0.203-0.43-0.305c-0.105-0.102-0.234-0.19-0.389-0.268
			c-0.156-0.075-0.288-0.163-0.389-0.264c-0.108-0.102-0.237-0.203-0.393-0.308c-0.156-0.098-0.288-0.2-0.389-0.305
			c-0.105-0.102-0.237-0.19-0.393-0.264c-0.156-0.078-0.284-0.166-0.389-0.268c-0.105-0.102-0.234-0.193-0.389-0.268
			c-0.156-0.075-0.288-0.163-0.389-0.268c-0.156-0.098-0.444-0.305-0.86-0.609c-0.156-0.102-0.444-0.305-0.86-0.61
			c-0.156-0.152-0.312-0.291-0.467-0.42c-0.159-0.125-0.315-0.24-0.471-0.342l-0.471-0.461c-0.102-0.051-0.261-0.176-0.467-0.383
			c-0.156-0.102-0.339-0.254-0.549-0.457l-0.471-0.461c-0.312-0.2-0.518-0.352-0.623-0.457l-0.393-0.383
			c-0.051,0-0.105-0.024-0.156-0.075l-0.234-0.23c-0.261-0.203-0.471-0.461-0.63-0.769c-0.159-0.308-0.24-0.64-0.244-1.002
			l-0.017-1.625l-0.014-1.161c-0.007-0.518,0.014-0.88,0.064-1.087l-0.014-1.161c-0.003-0.207,0.007-0.4,0.03-0.582
			c0.024-0.179,0.037-0.372,0.034-0.579c-0.003-0.257,0.02-0.44,0.071-0.545l-0.007-0.62l-0.01-0.694l-0.007-0.62l-0.007-0.62
			l-0.007-0.698l-0.007-0.62l-0.007-0.62l-0.014-1.084c-0.054-0.257-0.085-0.62-0.091-1.084l-0.01-0.931l-0.01-0.928
			c-0.003-0.413-0.034-0.721-0.088-0.928l-0.01-0.931c-0.003-0.152-0.017-0.322-0.044-0.501c-0.03-0.18-0.044-0.349-0.044-0.505
			l-0.014-1.084l-0.014-1.084l-0.024-2.245c-0.003-0.257,0.068-0.596,0.22-1.009c0.047-0.207,0.227-0.518,0.532-0.938l5.96-6.962
			c0.203-0.257,0.484-0.467,0.847-0.627c0.359-0.159,0.694-0.24,1.002-0.244l1.162-0.014c0.257-0.054,0.643-0.085,1.161-0.091
			l1.239-0.014c1.602,0.085,3.176,0.078,4.724-0.017c1.548-0.095,3.149-0.102,4.802-0.017l1.239-0.014l1.161-0.014
			c0.721-0.01,1.344,0.268,1.869,0.83l5.655,6.752C750.635,889.678,750.794,890.013,750.849,890.375z"></path>
        <path fill="#E65F00" d="M806.703,891.201c-0.261,0.149-0.396,0.406-0.4,0.769l-0.081,4.798c-0.003,0.21,0.003,0.403,0.027,0.582
			c0.024,0.183,0.007,0.403-0.047,0.657c-0.074,1.189-0.03,2.377,0.132,3.566c0.163,1.192,0.156,2.381-0.02,3.562
			c-0.41,2.889-0.586,5.713-0.528,8.476c0.054,2.763,0.061,5.537,0.014,8.327l-0.017,1.006l-0.017,0.928l-0.014,1.009
			c-0.044,2.425-0.108,4.798-0.2,7.121c-0.091,2.323-0.105,4.673-0.041,7.047c0.051,0.156,0.061,0.301,0.034,0.427
			c-0.031,0.132-0.044,0.271-0.047,0.427l-0.163,9.756c-0.007,0.362,0.115,0.623,0.372,0.782c0.203,0.21,0.461,0.318,0.769,0.322
			l2.249,0.037c0.308,0.007,0.538,0.139,0.687,0.4c0.203,0.21,0.305,0.471,0.298,0.779l-0.105,6.353
			c-0.007,0.308-0.115,0.565-0.325,0.769c-0.159,0.254-0.42,0.379-0.779,0.372l-0.931-0.014l-1.084-0.02l-14.094-0.237l-0.928-0.014
			c-0.312-0.007-0.593-0.139-0.847-0.403c-0.203-0.312-0.301-0.572-0.298-0.779l0.108-6.349c0.003-0.207,0.112-0.464,0.322-0.769
			c0.264-0.254,0.549-0.379,0.86-0.372l2.943,0.047c0.308,0.007,0.569-0.095,0.779-0.295c0.261-0.152,0.393-0.41,0.4-0.769
			l0.064-3.874l0.014-0.694c0.007-0.518,0.041-0.88,0.095-1.084c0.007-0.515,0.041-0.904,0.098-1.161
			c0.251-2.834,0.298-5.598,0.139-8.286c-0.163-2.685-0.169-5.425-0.017-8.208l0.01-0.775l0.014-0.775
			c0.007-0.257-0.119-0.518-0.372-0.779c-0.254-0.264-0.511-0.396-0.769-0.403l-13.786-0.23c-0.257-0.003-0.518,0.122-0.779,0.376
			c-0.213,0.305-0.318,0.562-0.322,0.769l-0.044,2.553c-0.003,0.207,0.003,0.417,0.027,0.62c0.024,0.21,0.007,0.44-0.051,0.698
			c-0.142,2.323-0.207,4.633-0.193,6.928c0.014,2.299,0,4.609-0.037,6.932l-0.017,0.853l-0.102,6.119l-5.208,1.151l9.292,0.156
			c0.359,0.007,0.616,0.139,0.769,0.4c0.2,0.21,0.301,0.471,0.295,0.779l-0.105,6.349c-0.007,0.312-0.115,0.566-0.322,0.772
			c-0.159,0.254-0.423,0.379-0.782,0.372l-0.928-0.017l-14.094-0.234l-1.087-0.02l-0.928-0.014
			c-0.308-0.007-0.593-0.142-0.847-0.403c-0.203-0.21-0.301-0.471-0.295-0.779l0.105-6.349c0.007-0.312,0.112-0.569,0.325-0.769
			c0.261-0.257,0.549-0.379,0.857-0.376l2.167,0.037c0.312,0.007,0.569-0.095,0.782-0.295c0.257-0.152,0.393-0.41,0.4-0.769
			l0.047-2.865l0.02-1.239c0.041-2.323,0.037-4.609,0-6.857c-0.041-2.245,0.01-4.531,0.152-6.851
			c0.054-0.207,0.071-0.413,0.051-0.62c-0.024-0.207-0.034-0.413-0.031-0.62c-0.017-1.964-0.01-3.898,0.02-5.811
			c0.034-1.906,0.115-3.816,0.251-5.726l0.017-1.006l0.108-6.427l0.017-0.931c0.203-2.939,0.342-5.828,0.417-8.669
			c0.071-2.838,0.031-5.703-0.129-8.598c-0.047-0.261-0.058-0.481-0.027-0.66c0.03-0.18,0.044-0.349,0.047-0.501l0.007-0.312
			c0.003-0.359-0.122-0.623-0.376-0.782c-0.203-0.207-0.461-0.315-0.769-0.322l-2.167-0.037c-0.312-0.003-0.593-0.135-0.847-0.4
			c-0.203-0.21-0.301-0.471-0.298-0.779l0.108-6.353c0.007-0.359,0.112-0.643,0.325-0.847c0.207-0.2,0.494-0.301,0.857-0.295
			l2.011,0.034l1.395,0.024c2.113,0.139,4.23,0.2,6.349,0.183c2.116-0.014,4.233-0.003,6.349,0.03l0.931,0.017
			c0.359,0.003,0.616,0.112,0.769,0.322c0.203,0.21,0.301,0.498,0.295,0.857l-0.105,6.349c-0.007,0.312-0.115,0.569-0.325,0.769
			c-0.159,0.257-0.42,0.383-0.779,0.376l-3.021-0.051c-0.725-0.013-1.09,0.342-1.104,1.067l-0.298,17.731l-0.01,0.62
			c0.044,0.572,0.058,1.151,0.051,1.744c-0.01,0.596-0.02,1.124-0.027,1.588c-0.207-0.003-0.427,0.007-0.66,0.027
			c-0.234,0.024-0.481,0.163-0.742,0.413c-0.105,0-0.312,0.047-0.623,0.146l-0.935,0.217c-0.312,0.098-0.674,0.183-1.087,0.254
			c-0.417,0.071-0.83,0.152-1.243,0.251l3.173,0.051l0.62,0.01c2.95-0.207,5.825-0.196,8.639,0.03
			c2.811,0.227,5.611,0.21,8.405-0.054c0.261-0.251,0.396-0.508,0.4-0.765l0.037-2.323l0.02-1.161
			c0.142-2.374,0.234-4.683,0.271-6.928c0.037-2.249,0-4.609-0.112-7.091l0.017-1.084c0.007-0.362,0.024-0.708,0.058-1.046
			c0.031-0.332,0.051-0.681,0.054-1.043l0.014-0.698l0.01-0.62c0.007-0.359-0.119-0.623-0.376-0.782
			c-0.203-0.207-0.457-0.315-0.769-0.322l-2.943-0.047c-0.308-0.007-0.589-0.139-0.843-0.403c-0.203-0.312-0.301-0.572-0.298-0.779
			l0.108-6.349c0.003-0.362,0.112-0.643,0.322-0.847c0.21-0.203,0.494-0.301,0.857-0.298l0.931,0.017l1.084,0.017
			c3.874,0.017,7.745,0.081,11.615,0.196l1.395,0.024l2.011,0.034c0.362,0.007,0.62,0.115,0.769,0.322
			c0.203,0.21,0.301,0.498,0.298,0.857l-0.108,6.349c-0.003,0.312-0.112,0.569-0.322,0.772c-0.159,0.254-0.393,0.379-0.704,0.372
			l-2.245-0.037C807.173,890.9,806.913,890.998,806.703,891.201z"></path>
        <path fill="#E65F00" d="M859.181,892.891c0.135,0.42,0.196,0.786,0.183,1.094l-0.505,10.677l-0.037,0.772l-0.464,4.863
			l-0.054,1.161c0.024,0.572,0.01,1.151-0.044,1.744c-0.054,0.593-0.091,1.172-0.119,1.737c-0.027,0.518-0.071,0.901-0.132,1.158
			c0.173,1.764,0.129,3.522-0.135,5.266c-0.264,1.744-0.308,3.501-0.132,5.266c-0.064,0.257-0.105,0.643-0.132,1.158
			c-0.01,0.257-0.01,0.477,0.01,0.657c0.017,0.183-0.007,0.403-0.071,0.657c-0.308,2.157-0.474,4.321-0.501,6.488
			c-0.024,2.171-0.01,4.368,0.037,6.593l-0.041,0.85l-0.417,8.821c-0.017,0.359-0.108,0.691-0.278,0.996
			c-0.176,0.403-0.345,0.731-0.511,0.982l-5.974,6.62c-0.427,0.288-0.748,0.481-0.958,0.572c-0.315,0.142-0.63,0.203-0.938,0.19
			l-1.161-0.054l-1.314-0.061c-2.008-0.2-3.992-0.318-5.953-0.359c-1.964-0.044-3.952-0.112-5.963-0.207l-1.08-0.051
			c-0.362-0.017-0.694-0.108-0.996-0.278c-0.406-0.176-0.681-0.396-0.823-0.66l-5.628-7.243c-0.095-0.159-0.193-0.308-0.288-0.44
			c-0.098-0.135-0.193-0.308-0.288-0.518c-0.091-0.264-0.125-0.599-0.105-1.013l0.549-11.605l0.037-0.85
			c0.125-2.631,0.196-5.212,0.213-7.745c0.017-2.533,0.135-5.083,0.362-7.66c0.007-0.207,0.031-0.41,0.068-0.616
			c0.034-0.203,0.058-0.41,0.068-0.616c0.18-1.646,0.345-3.268,0.501-4.863c0.152-1.595,0.163-3.22,0.034-4.883
			c-0.041-0.207-0.044-0.4-0.01-0.582c0.034-0.176,0.03-0.345-0.014-0.505c0.02-0.464,0.064-0.823,0.129-1.077l0.044-0.931
			c0.112-2.37,0.264-4.768,0.454-7.189c0.193-2.418,0.268-4.846,0.227-7.277c-0.037-0.261-0.041-0.477-0.007-0.66
			c0.034-0.176,0.054-0.318,0.061-0.423l0.017-0.386c0.02-0.413,0.085-0.745,0.203-0.999c0.169-0.352,0.389-0.65,0.66-0.897
			l6.288-6.681c0.166-0.251,0.457-0.444,0.88-0.579c0.315-0.139,0.654-0.203,1.016-0.186l15.472,0.731
			c0.566,0.027,1.172,0.342,1.815,0.938l5.323,7.152C858.903,892.207,859.045,892.525,859.181,892.891z M847.071,948.999
			c0.007-0.105-0.003-0.207-0.024-0.312c-0.02-0.105-0.003-0.207,0.054-0.308c0.102-1.08,0.18-2.177,0.23-3.285
			c0.054-1.107,0.132-2.205,0.234-3.285l0.051-1.084c0.19-4.023,0.383-8.046,0.572-12.069s0.4-7.965,0.637-11.832l0.051-1.084
			c-0.064-0.88-0.098-1.774-0.108-2.679c-0.007-0.904-0.041-1.825-0.102-2.756l0.054-1.161c0.075-1.548,0.186-3.092,0.335-4.636
			c0.152-1.544,0.264-3.115,0.342-4.714l0.034-0.776c0.034-0.721-0.166-1.375-0.603-1.967l-3.071-3.942
			c-0.295-0.325-0.569-0.545-0.823-0.66c-0.406-0.173-0.735-0.268-0.992-0.278l-6.034-0.288c-0.725-0.034-1.101,0.312-1.134,1.033
			l-0.796,16.789l-0.047,1.006c-0.173,1.49-0.295,2.956-0.362,4.402c-0.068,1.443-0.112,2.916-0.129,4.412l-0.061,1.236
			c-0.01,0.261-0.034,0.477-0.068,0.657c-0.037,0.18-0.058,0.372-0.068,0.579c-0.027,0.569-0.071,0.979-0.135,1.233
			c-0.203,2.113-0.264,4.226-0.183,6.349c0.081,2.127,0.017,4.24-0.183,6.349c-0.061,0.152-0.081,0.308-0.061,0.464
			c0.017,0.156,0.024,0.312,0.017,0.464l-0.65,13.772l-5.32,0.989l6.187,0.295l0.156,0.007l10.755,0.508
			c0.721,0.034,1.101-0.312,1.134-1.033L847.071,948.999z"></path>
        <path fill="#E65F00" d="M908.523,896.366c0.122,0.423,0.173,0.789,0.149,1.097l-0.295,3.864c-0.01,0.152-0.01,0.298,0.007,0.427
			c0.017,0.132-0.007,0.271-0.071,0.423c-0.268,2.154-0.535,4.321-0.806,6.502c-0.268,2.181-0.356,4.362-0.264,6.542l-0.098,1.314
			c-0.115,1.493-0.244,3.01-0.386,4.551c-0.142,1.544-0.271,3.061-0.383,4.555c-0.247,0.501-0.45,0.819-0.616,0.962
			c-0.454,0.538-0.877,1.023-1.27,1.459c-0.396,0.433-0.738,0.85-1.023,1.243c-0.345,0.44-0.684,0.826-1.019,1.165
			c-0.108,0.095-0.193,0.193-0.254,0.291c-0.058,0.098-0.142,0.196-0.254,0.291c-0.444,0.43-0.857,0.931-1.236,1.497
			c-0.376,0.569-0.853,0.88-1.426,0.941c-1.713,0.18-3.393,0.207-5.032,0.085c-1.642-0.125-3.308-0.254-4.998-0.383l-1.002-0.075
			c-0.718-0.054-1.104,0.278-1.158,0.996l-1.466,19.316l-5.422,0.826l6.099,0.464c0.051,0.003,0.102,0.03,0.149,0.088l3.01,0.23
			c0.312,0.02,0.559,0.146,0.752,0.369c0.18,0.325,0.261,0.62,0.24,0.88l-0.477,6.312c-0.02,0.261-0.146,0.538-0.376,0.836
			c-0.22,0.19-0.488,0.274-0.796,0.251l-2.008-0.152l-1.388-0.108c-1.91-0.091-3.772-0.274-5.591-0.538
			c-1.818-0.271-3.661-0.396-5.523-0.383c-0.572,0.007-1.141,0.017-1.713,0.024c-0.569,0.01-1.101-0.159-1.592-0.508
			c-0.19-0.223-0.271-0.518-0.244-0.88l0.481-6.315c0.027-0.362,0.152-0.64,0.372-0.833c0.224-0.193,0.515-0.274,0.874-0.247
			l2.164,0.166c0.203,0.014,0.471-0.071,0.796-0.251c0.274-0.237,0.423-0.484,0.444-0.742l0.687-9.025l0.058-0.772
			c0.471-4.826,0.894-9.563,1.277-14.216c0.376-4.649,0.725-9.394,1.043-14.233c0.193-3.241,0.413-6.471,0.657-9.685
			c0.244-3.214,0.491-6.437,0.735-9.678c0.017-0.207-0.119-0.474-0.403-0.806c-0.19-0.22-0.44-0.345-0.748-0.369l-2.164-0.163
			c-0.308-0.024-0.582-0.173-0.82-0.45c-0.19-0.224-0.274-0.488-0.251-0.796l0.481-6.336c0.027-0.359,0.152-0.633,0.376-0.823
			c0.22-0.19,0.511-0.274,0.87-0.247l3.63,0.278l1.314,0.098c2.316,0.176,4.629,0.43,6.932,0.762
			c2.306,0.328,4.653,0.43,7.047,0.301c0.152,0.014,0.308,0.037,0.461,0.075c0.152,0.037,0.332,0.037,0.542,0.003
			c0.823,0.061,1.649,0.098,2.479,0.108c0.826,0.014,1.527,0.325,2.103,0.938c0.904,1.053,1.781,2.103,2.635,3.153
			c0.853,1.05,1.676,2.12,2.472,3.217l0.769,1.145C908.242,895.621,908.398,895.942,908.523,896.366z M897.575,916.738l0.071-0.928
			c0.044-1.961,0.129-3.925,0.254-5.882c0.122-1.957,0.335-3.935,0.643-5.933l0.064-0.85l0.054-0.694
			c0.024-0.308-0.027-0.674-0.149-1.097c-0.085-0.213-0.135-0.413-0.146-0.596c-0.014-0.18-0.068-0.325-0.159-0.437l-2.394-3.989
			c-0.362-0.65-0.924-1.002-1.69-1.06l-2.987-0.227c-0.714-0.054-1.101,0.278-1.155,0.999l-0.271,3.552
			c-0.02,0.257-0.051,0.488-0.091,0.691c-0.041,0.207-0.044,0.437-0.014,0.698c-0.064,2.225-0.166,4.406-0.301,6.542
			c-0.139,2.14-0.369,4.334-0.698,6.586c-0.061,0.152-0.088,0.305-0.071,0.461c0.014,0.159,0.017,0.288,0.007,0.389l-0.623,8.188
			l-2.712,0.413c-0.268,0.034-0.491,0.068-0.681,0.105c-0.186,0.037-0.386,0.075-0.599,0.108c-0.156-0.01-0.315,0.003-0.477,0.041
			l-0.952,0.163l0.464,0.034l1.158,0.088l4.633,0.352l0.078,0.007l6.952,0.528c0.308,0.024,0.572-0.058,0.796-0.251
			c0.274-0.237,0.427-0.511,0.45-0.82L897.575,916.738z"></path>
	</g>
</g>
</svg>